<?xml version="1.0" standalone="no"?>
<!DOCTYPE svg PUBLIC "-//W3C//DTD SVG 20010904//EN"
 "http://www.w3.org/TR/2001/REC-SVG-20010904/DTD/svg10.dtd">
<svg version="1.0" xmlns="http://www.w3.org/2000/svg"
 width="50.000000pt" height="50.000000pt" viewBox="0 0 200.000000 200.000000"
 preserveAspectRatio="xMidYMid meet">

<g transform="translate(0.000000,200.000000) scale(0.100000,-0.100000)"
fill="#615EFC" stroke="none">
<path d="M800 1971 c-487 -106 -816 -535 -787 -1026 30 -479 403 -870 880
-920 l67 -7 0 71 0 70 -37 6 c-178 28 -274 61 -387 135 -185 121 -320 317
-367 535 -17 77 -17 263 0 340 47 218 182 414 367 535 82 54 211 107 277 116
l42 5 44 -100 c25 -55 46 -99 48 -97 4 4 24 338 20 342 -13 13 -97 10 -167 -5z"/>
<path d="M1050 1920 c0 -48 4 -72 13 -74 6 -2 45 -9 85 -15 321 -50 600 -322
673 -656 17 -77 17 -263 0 -340 -47 -218 -182 -414 -367 -535 -75 -49 -198
-103 -265 -115 l-37 -7 -53 96 c-29 53 -54 94 -57 92 -2 -2 0 -81 4 -175 l7
-171 56 6 c341 39 660 277 791 591 61 145 73 212 73 388 0 176 -12 243 -73
388 -131 315 -450 552 -792 591 l-58 6 0 -70z"/>
<path d="M450 1551 c16 -31 12 -47 -16 -59 l-25 -12 4 -108 c6 -123 7 -133 17
-147 4 -5 11 -24 14 -40 6 -27 1 -36 -49 -85 -60 -59 -67 -77 -32 -82 21 -3
21 -4 -9 -33 -17 -17 -52 -55 -77 -86 l-48 -57 33 -20 c40 -23 104 -56 138
-69 64 -26 76 -30 87 -26 10 4 10 9 -1 25 -13 19 -13 25 5 59 11 22 23 39 28
39 4 0 12 14 17 32 8 25 21 38 61 58 33 16 52 32 52 43 1 10 6 15 11 12 6 -3
10 -2 10 3 0 10 105 32 148 32 12 0 37 -14 55 -30 50 -44 57 -39 57 35 0 69
-13 107 -50 140 -17 16 -24 17 -41 7 -10 -7 -19 -9 -19 -5 0 5 -33 9 -73 10
-39 2 -67 -1 -60 -5 16 -10 4 -25 -32 -38 -16 -6 -38 -15 -47 -19 -15 -6 -18
-2 -18 24 0 18 7 46 16 62 18 36 11 48 -18 30 -13 -8 -24 -9 -30 -3 -11 11
-33 97 -43 165 -6 44 -5 47 17 47 21 0 144 -28 196 -44 36 -12 27 18 -17 53
-21 17 -48 31 -59 31 -10 0 -31 9 -45 20 -14 11 -30 20 -36 20 -6 0 -21 5 -34
12 -48 24 -57 28 -77 28 -17 0 -19 -3 -10 -19z"/>
<path d="M1464 1547 c-28 -12 -62 -30 -77 -39 -14 -10 -35 -18 -47 -18 -21 0
-100 -65 -100 -82 0 -6 10 -7 23 -4 67 21 175 46 195 46 23 0 24 -3 19 -52 -5
-63 -24 -137 -39 -155 -7 -9 -16 -10 -28 -3 -27 14 -34 -4 -17 -42 25 -55 27
-78 9 -78 -10 0 -26 7 -36 15 -11 8 -30 15 -43 15 -17 0 -23 6 -23 21 0 20 -4
21 -50 16 -40 -5 -51 -3 -59 11 -8 14 -11 12 -17 -13 -7 -28 -7 -28 -15 -7 -8
22 -10 22 -33 7 -45 -30 -60 -65 -61 -137 0 -36 3 -69 7 -73 4 -4 24 7 45 24
37 30 93 43 93 20 0 -5 5 -7 11 -4 6 4 30 4 55 0 36 -5 44 -10 45 -28 0 -20 1
-21 8 -3 5 14 10 16 15 8 4 -7 5 -16 2 -20 -3 -5 12 -14 32 -21 45 -16 82 -48
82 -71 0 -9 9 -25 19 -34 31 -28 46 -73 31 -91 -43 -52 73 -21 192 52 68 40
68 38 -21 133 -34 36 -61 68 -61 73 0 4 9 7 20 7 11 0 20 3 20 7 0 4 -32 40
-72 80 -65 65 -71 74 -61 95 33 68 50 161 44 233 -5 50 -9 60 -24 58 -19 -1
-20 17 -2 60 10 23 -16 21 -81 -6z"/>
<path d="M1582 1440 c0 -19 2 -27 5 -17 2 9 2 25 0 35 -3 9 -5 1 -5 -18z"/>
<path d="M745 920 c-9 -15 14 -40 36 -40 24 0 33 18 19 35 -14 17 -46 20 -55
5z"/>
<path d="M1193 919 c-6 -6 -9 -18 -6 -25 11 -28 63 -9 63 23 0 16 -42 17 -57
2z"/>
<path d="M832 765 c-56 -61 -80 -121 -63 -154 6 -11 25 -33 42 -50 23 -23 35
-29 47 -22 22 12 52 -4 52 -27 0 -20 43 -42 81 -42 33 0 91 24 109 44 7 9 21
16 32 16 10 0 21 7 24 15 4 8 12 15 18 15 7 0 22 9 34 20 43 40 20 117 -60
198 -57 58 -72 55 -87 -14 -12 -51 -11 -57 6 -74 33 -30 17 -92 -28 -115 -23
-12 -37 -14 -68 -5 -46 12 -58 25 -66 68 -4 24 0 37 15 52 19 19 20 24 8 73
-8 33 -19 53 -29 55 -9 2 -38 -21 -67 -53z m204 -234 c-8 -12 -46 -21 -46 -11
0 5 10 11 23 13 12 2 23 5 25 6 2 0 1 -3 -2 -8z"/>
</g>
</svg>
